<mxfile host="app.diagrams.net" modified="2023-05-23T09:53:38.222Z" agent="Mozilla/5.0 (Macintosh; Intel Mac OS X 10_15_7) AppleWebKit/537.36 (KHTML, like Gecko) Chrome/113.0.0.0 Safari/537.36" version="21.3.2" etag="o7SaZyZKtFhjw6vOhuuW" type="github">
  <diagram name="Page-1" id="RXEJC3i6YqQSCGNI8xU-">
    <mxGraphModel>
      <root>
        <mxCell id="0" />
        <mxCell id="1" parent="0" />
      </root>
    </mxGraphModel>
  </diagram>
</mxfile>
